<svg width="19" height="19" viewBox="0 0 19 19" fill="none" xmlns="http://www.w3.org/2000/svg">
<path d="M9.34969 16.6346L8.21998 15.6217C6.90848 14.4401 5.82422 13.4207 4.9672 12.5637C4.11018 11.7067 3.42846 10.9373 2.92204 10.2556C2.41561 9.57387 2.06177 8.94734 1.8605 8.37599C1.65923 7.80464 1.55859 7.22031 1.55859 6.62299C1.55859 5.40239 1.96763 4.38305 2.78569 3.56499C3.60376 2.74692 4.62309 2.33789 5.8437 2.33789C6.51892 2.33789 7.16169 2.48073 7.77199 2.7664C8.3823 3.05207 8.90819 3.45461 9.34969 3.97402C9.79119 3.45461 10.3171 3.05207 10.9274 2.7664C11.5377 2.48073 12.1805 2.33789 12.8557 2.33789C14.0763 2.33789 15.0956 2.74692 15.9137 3.56499C16.7318 4.38305 17.1408 5.40239 17.1408 6.62299C17.1408 7.22031 17.0402 7.80464 16.8389 8.37599C16.6376 8.94734 16.2838 9.57387 15.7773 10.2556C15.2709 10.9373 14.5892 11.7067 13.7322 12.5637C12.8752 13.4207 11.7909 14.4401 10.4794 15.6217L9.34969 16.6346ZM9.34969 14.531C10.5963 13.4142 11.6221 12.4566 12.4272 11.658C13.2323 10.8594 13.8685 10.1647 14.336 9.57387C14.8035 8.98305 15.1281 8.45715 15.3099 7.99617C15.4917 7.5352 15.5826 7.07747 15.5826 6.62299C15.5826 5.84388 15.3229 5.19463 14.8035 4.67522C14.2841 4.15581 13.6348 3.89611 12.8557 3.89611C12.2454 3.89611 11.6805 4.06816 11.1611 4.41227C10.6417 4.75638 10.2846 5.19463 10.0898 5.72702H8.60954C8.41476 5.19463 8.05767 4.75638 7.53826 4.41227C7.01885 4.06816 6.454 3.89611 5.8437 3.89611C5.06459 3.89611 4.41533 4.15581 3.89592 4.67522C3.37652 5.19463 3.11681 5.84388 3.11681 6.62299C3.11681 7.07747 3.20771 7.5352 3.3895 7.99617C3.57129 8.45715 3.89592 8.98305 4.36339 9.57387C4.83085 10.1647 5.46713 10.8594 6.27221 11.658C7.07729 12.4566 8.10311 13.4142 9.34969 14.531Z" fill="#1C1B1F"/>
</svg>
